# xmcd
#
# Track frame offsets: 
#        150
#        21979
#        41854
#        57121
#        76028
#        86427
#        102714
#        122345
#        150643
#        173770
#        194297
#
# Disc length: 2824 seconds
#
# Revision: 1
# Processed by: cddbd v1.5.2PL0 Copyright (c) Steve Scherf et al.
# Submitted via: ExactAudioCopy v1.0b3
#
DISCID=820b060b
DTITLE=Various Artist - Blues At Midnight
DYEAR=2001
DGENRE=Blues
TTITLE0=Walter Trout  - Sweet Butterfly
TTITLE1=Larry Garner - Stranger's Blues
TTITLE2=Hans Theessink - Lazy Long Hot Summer Day
TTITLE3=Friend 'N Fellow - I Still Haven't Found What I'm Looking For
TTITLE4=James Hunter - Mollena
TTITLE5=Stavin' Chain - El Guapo
TTITLE6=Ana Popovic - I Won't Let You Down
TTITLE7=Hank Shizzoe - Six Blade Knife
TTITLE8=Trudy Lynn - Help Me Through The Day
TTITLE9=Luther Allison - Castle
TTITLE10=Eric Bibb - Angel
EXTD=
EXTT0=
EXTT1=
EXTT2=
EXTT3=
EXTT4=
EXTT5=
EXTT6=
EXTT7=
EXTT8=
EXTT9=
EXTT10=
PLAYORDER=
